<mxfile host="app.diagrams.net" modified="2024-01-30T02:32:38.445Z" agent="Mozilla/5.0 (Windows NT 10.0; Win64; x64) AppleWebKit/537.36 (KHTML, like Gecko) Chrome/95.0.4638.69 Safari/537.36" version="23.0.2" etag="ynW4ErekKEggA9cT7uKo" type="github">
  <diagram name="第 1 页" id="6LPXVagdgYWMDLv3mDtp">
    <mxGraphModel>
      <root>
        <mxCell id="0" />
        <mxCell id="1" parent="0" />
      </root>
    </mxGraphModel>
  </diagram>
</mxfile>
